<svg width="16" height="16" viewBox="0 0 16 16" fill="none" xmlns="http://www.w3.org/2000/svg">
<g clip-path="url(#clip0_147_304)">
<path d="M4.21112 14.675C4.04167 14.8813 3.80556 15 3.55556 15C3.30556 15 3.06945 14.8813 2.90001 14.675L0.455562 11.675C0.125007 11.2688 0.147229 10.6344 0.511118 10.2625C0.875007 9.89062 1.43612 9.91562 1.76667 10.325L2.66667 11.4281V2C2.66667 1.44687 3.0639 1 3.55556 1C4.04723 1 4.44445 1.44687 4.44445 2V11.4281L5.34445 10.3219C5.67501 9.91562 6.2389 9.8875 6.60001 10.2594C6.96112 10.6312 6.98612 11.2656 6.65556 11.6719L4.21112 14.6719V14.675ZM8.8889 1H9.77779C10.2695 1 10.6667 1.44687 10.6667 2C10.6667 2.55313 10.2695 3 9.77779 3H8.8889C8.39723 3 8.00001 2.55313 8.00001 2C8.00001 1.44687 8.39723 1 8.8889 1ZM8.8889 5H11.5556C12.0472 5 12.4445 5.44688 12.4445 6C12.4445 6.55312 12.0472 7 11.5556 7H8.8889C8.39723 7 8.00001 6.55312 8.00001 6C8.00001 5.44688 8.39723 5 8.8889 5ZM8.8889 9H13.3333C13.825 9 14.2222 9.44687 14.2222 10C14.2222 10.5531 13.825 11 13.3333 11H8.8889C8.39723 11 8.00001 10.5531 8.00001 10C8.00001 9.44687 8.39723 9 8.8889 9ZM8.8889 13H15.1111C15.6028 13 16 13.4469 16 14C16 14.5531 15.6028 15 15.1111 15H8.8889C8.39723 15 8.00001 14.5531 8.00001 14C8.00001 13.4469 8.39723 13 8.8889 13Z" fill="#8ECAE6"/>
</g>
<defs>
<clipPath id="clip0_147_304">
<rect width="16" height="16" fill="white"/>
</clipPath>
</defs>
</svg>
