<svg width="20" height="20" viewBox="0 0 20 20" fill="none" xmlns="http://www.w3.org/2000/svg">
<g clip-path="url(#clip0_144_29)">
<g clip-path="url(#clip1_144_29)">
<path d="M10 20C7.33333 20 4.83333 19 2.91667 17.0833C-0.999999 13.1667 -0.999999 6.83333 2.91667 2.91667C4.83333 1 7.33333 0 10 0C12.6667 0 15.1667 1 17.0833 2.91667C21 6.83333 21 13.1667 17.0833 17.0833C15.1667 19 12.6667 20 10 20ZM10 1.66667C7.75 1.66667 5.66667 2.5 4.08333 4.08333C0.833335 7.33333 0.833335 12.6667 4.08333 15.9167C5.66667 17.5 7.75 18.3333 10 18.3333C12.25 18.3333 14.3333 17.5 15.9167 15.9167C19.1667 12.6667 19.1667 7.41667 15.9167 4.16667C14.3333 2.5 12.25 1.66667 10 1.66667Z" fill="#8ECAE6"/>
<path d="M10 15C9.5 15 9.16667 14.6667 9.16667 14.1667V5.83333C9.16667 5.33333 9.5 5 10 5C10.5 5 10.8333 5.33333 10.8333 5.83333V14.1667C10.8333 14.6667 10.5 15 10 15Z" fill="#023047"/>
<path d="M14.1667 10.8333H5.83333C5.33333 10.8333 5 10.5 5 10C5 9.5 5.33333 9.16667 5.83333 9.16667H14.1667C14.6667 9.16667 15 9.5 15 10C15 10.5 14.6667 10.8333 14.1667 10.8333Z" fill="#023047"/>
</g>
</g>
<defs>
<clipPath id="clip0_144_29">
<rect width="20" height="20" fill="white"/>
</clipPath>
<clipPath id="clip1_144_29">
<rect width="20" height="20" fill="white"/>
</clipPath>
</defs>
</svg>
