<svg width="12" height="12" viewBox="0 0 12 12" fill="none" xmlns="http://www.w3.org/2000/svg">
<path d="M7.09172 0.379475L6.14538 1.32574L8.68721 3.86737L9.63355 2.9211C10.1224 2.43233 10.1224 1.64051 9.63355 1.15174L8.86318 0.379475C8.37437 -0.1093 7.58249 -0.1093 7.09368 0.379475H7.09172ZM5.70349 1.7676L1.1458 6.32689C0.942456 6.53022 0.793857 6.78243 0.711736 7.05809L0.0195772 9.41008C-0.0293041 9.57626 0.0156667 9.75418 0.136892 9.87539C0.258118 9.99661 0.436046 10.0416 0.600287 9.99465L2.95246 9.30255C3.22815 9.22044 3.48037 9.07185 3.68372 8.86852L8.24532 4.30923L5.70349 1.7676Z" fill="#8ECAE6"/>
</svg>
